<svg width="60" height="60" viewBox="0 0 60 60" fill="none" xmlns="http://www.w3.org/2000/svg">
<circle cx="30" cy="30" r="30" fill="white"/>
<g clip-path="url(#clip0_112_607)">
<path d="M40 18H37V17C37 16.7348 36.8946 16.4804 36.7071 16.2929C36.5196 16.1054 36.2652 16 36 16C35.7348 16 35.4804 16.1054 35.2929 16.2929C35.1054 16.4804 35 16.7348 35 17V18H25V17C25 16.7348 24.8946 16.4804 24.7071 16.2929C24.5196 16.1054 24.2652 16 24 16C23.7348 16 23.4804 16.1054 23.2929 16.2929C23.1054 16.4804 23 16.7348 23 17V18H20C19.4696 18 18.9609 18.2107 18.5858 18.5858C18.2107 18.9609 18 19.4696 18 20V40C18 40.5304 18.2107 41.0391 18.5858 41.4142C18.9609 41.7893 19.4696 42 20 42H40C40.5304 42 41.0391 41.7893 41.4142 41.4142C41.7893 41.0391 42 40.5304 42 40V20C42 19.4696 41.7893 18.9609 41.4142 18.5858C41.0391 18.2107 40.5304 18 40 18ZM40 24H20V20H23V21C23 21.2652 23.1054 21.5196 23.2929 21.7071C23.4804 21.8946 23.7348 22 24 22C24.2652 22 24.5196 21.8946 24.7071 21.7071C24.8946 21.5196 25 21.2652 25 21V20H35V21C35 21.2652 35.1054 21.5196 35.2929 21.7071C35.4804 21.8946 35.7348 22 36 22C36.2652 22 36.5196 21.8946 36.7071 21.7071C36.8946 21.5196 37 21.2652 37 21V20H40V24Z" fill="#374D94"/>
</g>
<defs>
<clipPath id="clip0_112_607">
<rect width="32" height="32" fill="white" transform="translate(14 14)"/>
</clipPath>
</defs>
</svg>
