<svg width="88" height="40" viewBox="0 0 88 40" fill="none" xmlns="http://www.w3.org/2000/svg">
<g clip-path="url(#clip0_2001_227)">
<path d="M5.73812 16.817C4.30231 16.5785 2.85088 16.4461 1.39562 16.4211C1.38335 16.4255 1.37013 16.4268 1.35725 16.4246C1.34437 16.4225 1.33227 16.417 1.32214 16.4088C1.312 16.4005 1.30418 16.3898 1.29943 16.3776C1.29469 16.3655 1.29318 16.3523 1.29507 16.3394C1.29507 7.32757 1.29507 6.12098 1.29507 6.10212C1.10025 3.84603 -0.00579624 4.35507 0.138744 3.86489C0.371266 3.24273 1.57158 2.51375 2.65249 2.51375C4.06647 2.51375 5.32963 3.38099 5.32963 5.53025V13.48H5.64385C9.41447 13.48 9.01227 12.5373 9.33906 12.8013C9.59348 13.0467 9.75362 13.3736 9.79153 13.7251C10.0995 16.3268 7.81824 17.1186 5.75068 16.817" fill="#374D94"/>
<path d="M21.0531 15.4973C20.812 15.965 20.4278 16.3435 19.9566 16.5777C19.4853 16.8118 18.9515 16.8892 18.4331 16.7987C17.9147 16.7082 17.4388 16.4545 17.0747 16.0746C16.7106 15.6947 16.4773 15.2083 16.409 14.6866C15.7805 15.912 14.819 16.817 13.5496 16.817C11.2621 16.817 9.99265 14.1964 9.99265 11.6701C9.99265 9.14376 11.2495 6.56088 13.6376 6.56088C14.2116 6.57198 14.7706 6.74631 15.2491 7.0635C15.7277 7.38068 16.106 7.82758 16.3399 8.35193V7.05106C16.3392 7.02495 16.3476 6.99941 16.3636 6.97879C16.3797 6.95818 16.4024 6.94374 16.4278 6.93794H20.0539C20.075 6.94338 20.0937 6.9555 20.1073 6.9725C20.1209 6.9895 20.1287 7.01045 20.1293 7.03221C20.1293 7.03221 19.9974 11.3119 19.9974 12.6316C19.9974 15.6292 21.2542 14.9882 21.0531 15.4973ZM16.4781 11.6701C16.4781 10.2561 16.0068 9.10605 15.1207 9.10605C14.2346 9.10605 13.7633 10.2561 13.7633 11.6701C13.7633 13.0841 14.2346 14.2152 15.1207 14.2152C16.0068 14.2152 16.4781 13.0841 16.4781 11.6701Z" fill="#374D94"/>
<path d="M32.3398 15.4596C32.126 15.8558 31.8096 16.1873 31.4238 16.4195C31.038 16.6516 30.5969 16.7759 30.1466 16.7793C29.7794 16.7794 29.4161 16.7038 29.0794 16.5571C28.7427 16.4105 28.4399 16.196 28.1898 15.9271C27.9397 15.6582 27.7478 15.3406 27.626 14.9941C27.5043 14.6477 27.4552 14.2798 27.482 13.9136V10.2561C27.482 8.37078 25.6533 8.99922 25.6344 11.2553V16.2828C25.6351 16.3089 25.6267 16.3345 25.6106 16.3551C25.5946 16.3757 25.5719 16.3901 25.5464 16.3959H21.9204C21.9004 16.3894 21.8831 16.3768 21.8707 16.3599C21.8583 16.343 21.8515 16.3226 21.8512 16.3017C21.8512 16.3017 21.9958 12.0031 21.9958 10.7023C21.9958 7.70464 20.7389 8.34565 20.9211 7.83661C21.125 7.43478 21.436 7.0971 21.8197 6.86088C22.2034 6.62466 22.6449 6.4991 23.0955 6.49804C23.7148 6.48348 24.317 6.70217 24.7826 7.11074C25.2482 7.51931 25.5432 8.08793 25.6093 8.70386C25.8606 8.08576 26.281 7.551 26.8223 7.16086C27.3636 6.77073 28.0039 6.54101 28.6698 6.49804C30.0272 6.49804 31.1835 7.7235 31.1835 9.60881C31.1835 10.4006 31.1835 11.1359 31.1835 12.5499C31.1835 15.5475 32.5786 14.9065 32.3964 15.4344" fill="#374D94"/>
<path d="M37.5056 20.9647C36.6486 21.0001 35.8011 20.7738 35.0759 20.3158C34.3507 19.8577 33.7821 19.1897 33.4459 18.4006C33.1757 17.4768 33.339 17.3072 33.5401 17.3449C33.9738 17.4203 34.5017 18.8154 36.5315 18.8154C37.1485 18.8057 37.7375 18.5563 38.1738 18.1199C38.6101 17.6836 38.8596 17.0946 38.8693 16.4776V14.7997C38.6311 15.364 38.2366 15.8484 37.7322 16.1958C37.2278 16.5432 36.6346 16.7391 36.0225 16.7604C33.735 16.7604 32.4718 14.1964 32.4718 11.6701C32.4718 9.14376 33.7287 6.56088 36.1105 6.56088C36.6909 6.5755 37.2552 6.75529 37.7372 7.07919C38.2191 7.40309 38.5988 7.85767 38.8316 8.38963V7.05106C38.8316 6.9568 38.9007 6.9568 38.9007 6.9568H42.4011C42.4011 6.9568 42.4702 6.9568 42.4702 7.05106C42.4702 7.05106 42.5268 13.0652 42.5268 15.3653C42.6336 18.6269 40.8803 20.9647 37.4993 20.9647M38.8944 11.6701C38.8944 10.2561 38.4042 9.10605 37.537 9.10605C36.6698 9.10605 36.1607 10.2561 36.1607 11.6701C36.1607 13.0841 36.6509 14.1838 37.537 14.1838C38.4231 14.1838 38.8944 13.1092 38.8944 11.6701Z" fill="#374D94"/>
<path d="M54.2912 15.4973C54.0798 15.897 53.7645 16.2324 53.3785 16.4679C52.9925 16.7035 52.5501 16.8306 52.0979 16.8358C51.4916 16.8417 50.9044 16.6238 50.4487 16.2238C49.993 15.8238 49.7008 15.2697 49.6282 14.6677C48.8677 16.2702 47.6549 16.8358 46.6934 16.8358C45.3548 16.8358 44.1796 15.6104 44.1796 13.7251V10.784C44.1796 7.78633 42.8033 8.42734 42.9667 7.91831C43.1781 7.51854 43.4934 7.1832 43.8794 6.94762C44.2654 6.71204 44.7078 6.58495 45.16 6.57974C45.5315 6.57026 45.901 6.63825 46.2448 6.77939C46.5887 6.92053 46.8994 7.13172 47.1571 7.39952C47.4149 7.66732 47.614 7.98585 47.7419 8.33484C47.8698 8.68383 47.9236 9.05563 47.9 9.42655V13.0841C47.9 14.9317 49.5276 14.3409 49.603 12.2168V7.05106C49.6001 7.02718 49.6054 7.00302 49.6179 6.98249C49.6305 6.96196 49.6496 6.94626 49.6721 6.93794H53.3171C53.3382 6.94338 53.3569 6.9555 53.3705 6.9725C53.3841 6.9895 53.3918 7.01045 53.3925 7.03221C53.3925 7.03221 53.2417 11.3307 53.2417 12.6316C53.2417 15.6292 54.4985 14.9882 54.3163 15.4973" fill="#374D94"/>
<path d="M65.4522 15.4973C65.2127 15.9662 64.8292 16.3461 64.3581 16.5812C63.8869 16.8163 63.3528 16.8942 62.8341 16.8035C62.3154 16.7129 61.8394 16.4584 61.4759 16.0774C61.1124 15.6964 60.8805 15.209 60.8143 14.6866C60.1859 15.912 59.2181 16.817 57.9486 16.817C55.6674 16.817 54.398 14.1964 54.398 11.6701C54.398 9.14376 55.6549 6.56088 58.0429 6.56088C58.6164 6.57089 59.175 6.74486 59.6528 7.06225C60.1305 7.37963 60.5074 7.82716 60.7389 8.35193V7.05106C60.7397 7.02439 60.7494 6.99875 60.7665 6.97824C60.7836 6.95774 60.8071 6.94355 60.8332 6.93794H64.453C64.474 6.94338 64.4928 6.9555 64.5064 6.9725C64.52 6.9895 64.5277 7.01045 64.5284 7.03221C64.5284 7.03221 64.4027 11.3307 64.4027 12.6316C64.4027 15.6292 65.6596 14.9882 65.4522 15.4973ZM60.852 11.6701C60.852 10.2561 60.3807 9.10605 59.4883 9.10605C58.5959 9.10605 58.1309 10.2561 58.1309 11.6701C58.1309 13.0841 58.6022 14.2152 59.4883 14.2152C60.3744 14.2152 60.852 13.0841 60.852 11.6701Z" fill="#374D94"/>
<path d="M70.6368 20.9647C69.7766 21.004 68.925 20.7795 68.196 20.3213C67.4671 19.863 66.8956 19.1928 66.5582 18.4006C66.288 17.4768 66.4514 17.3072 66.6462 17.3449C67.0861 17.4203 67.6077 18.8154 69.6376 18.8154C70.255 18.8073 70.845 18.5583 71.2816 18.1217C71.7183 17.685 71.9672 17.0951 71.9753 16.4776V14.7997C71.7378 15.3644 71.3435 15.8492 70.8389 16.1967C70.3344 16.5442 69.7408 16.7398 69.1285 16.7604C66.8473 16.7604 65.5779 14.1964 65.5779 11.6701C65.5779 9.14376 66.8347 6.56088 69.2228 6.56088C69.8033 6.5755 70.3676 6.75529 70.8495 7.07919C71.3315 7.40309 71.7111 7.85767 71.9439 8.38963V7.05106C71.9439 6.9568 72.013 6.9568 72.013 6.9568H75.5134C75.5134 6.9568 75.5826 6.9568 75.5826 7.05106C75.5826 7.05106 75.6391 13.0652 75.6391 15.3653C75.746 18.6269 73.9863 20.9647 70.6116 20.9647M72.0068 11.6701C72.0068 10.2561 71.5166 9.10605 70.6493 9.10605C69.7821 9.10605 69.2668 10.2561 69.2668 11.6701C69.2668 13.0841 69.757 14.1838 70.6493 14.1838C71.5417 14.1838 72.0068 13.1092 72.0068 11.6701Z" fill="#374D94"/>
<path d="M85.6627 13.8256C85.3162 14.7026 84.7176 15.4572 83.9424 15.9941C83.1673 16.531 82.2504 16.8261 81.3076 16.8421C80.6457 16.8291 79.993 16.6854 79.3867 16.4194C78.7805 16.1534 78.2328 15.7703 77.775 15.2921C77.3172 14.8139 76.9584 14.25 76.7191 13.6327C76.4798 13.0155 76.3648 12.357 76.3807 11.6952C76.3668 11.0148 76.4912 10.3386 76.7464 9.7077C77.0016 9.07678 77.3822 8.50423 77.8652 8.02476C78.3482 7.54529 78.9235 7.16887 79.5563 6.91833C80.1891 6.66778 80.8661 6.54831 81.5464 6.56717C84.5189 6.56717 85.8072 8.50904 85.8072 9.84761C85.8072 12.8075 82.4891 13.1658 80.1136 12.751C80.742 14.6363 83.1615 14.8248 85.3673 13.5428C85.401 13.5152 85.4432 13.5002 85.4867 13.5002C85.5303 13.5002 85.5724 13.5152 85.6061 13.5428C85.6753 13.5994 85.713 13.6748 85.6627 13.8445M79.9502 11.0668C81.5653 11.2176 82.3634 10.5954 82.3634 9.57738C82.3655 9.45309 82.3417 9.32972 82.2933 9.21519C82.245 9.10066 82.1733 8.99749 82.0828 8.91229C81.9922 8.82709 81.8849 8.76175 81.7677 8.72044C81.6504 8.67914 81.5258 8.66279 81.4019 8.67243H81.3453C81.1907 8.69866 81.0431 8.75642 80.9117 8.84211C80.2833 9.21917 80.0382 10.099 79.9691 11.0479" fill="#374D94"/>
<path d="M0.811172 19.9466C0.810316 19.9312 0.812609 19.9158 0.81791 19.9014C0.82321 19.8869 0.831407 19.8737 0.841997 19.8625C0.852588 19.8513 0.865349 19.8424 0.8795 19.8364C0.89365 19.8303 0.908892 19.8272 0.924291 19.8272C2.78349 19.3045 4.71334 19.0776 6.64306 19.1548C9.99263 19.2616 12.8646 21.0086 12.8646 24.3331C12.8646 26.7526 11.4506 30.165 5.57472 29.9199V31.0071C5.68784 34.5766 7.20866 33.8099 6.98871 34.4446C6.73105 35.2553 5.37991 36.2734 4.07904 36.2734C2.31314 36.2734 0.767181 35.1233 0.767181 32.3142L0.811172 19.9466ZM5.57472 21.5931V27.5884C7.31549 27.5884 8.33984 25.9356 8.33984 24.2891C8.33984 22.6426 7.20866 21.3229 5.57472 21.5931Z" fill="#EF413A"/>
<path d="M24.365 32.6096C23.9511 33.6612 23.2347 34.5665 22.3062 35.2109C21.3777 35.8552 20.2789 36.2097 19.149 36.2294C17.5114 36.1919 15.9558 35.5054 14.8244 34.321C13.693 33.1365 13.0785 31.5511 13.116 29.9136C13.1535 28.276 13.84 26.7205 15.0244 25.5891C16.2088 24.4577 17.7942 23.8431 19.4318 23.8806C22.995 23.8806 24.541 26.2121 24.541 27.8209C24.541 31.3716 20.5629 31.7989 17.7098 31.3024C18.4765 33.5648 21.3673 33.8162 23.9942 32.2514C24.0338 32.2181 24.0839 32.1999 24.1356 32.1999C24.1873 32.1999 24.2374 32.2181 24.277 32.2514C24.365 32.3142 24.409 32.4085 24.3398 32.6096M17.5402 29.3291C19.4758 29.5114 20.431 28.7636 20.431 27.5444C20.434 27.3954 20.4059 27.2474 20.3483 27.1099C20.2908 26.9724 20.2051 26.8484 20.0968 26.746C19.9885 26.6437 19.8599 26.5651 19.7194 26.5153C19.5789 26.4656 19.4295 26.4458 19.2809 26.4572H19.2181C19.0317 26.4854 18.8536 26.5541 18.6965 26.6583C17.9801 27.1108 17.6533 28.198 17.5653 29.304" fill="#EF413A"/>
<path d="M38.2408 34.6457C38.0272 35.3684 36.852 36.2545 35.6328 36.2545C34.9071 36.2674 34.2025 36.0102 33.6555 35.533C33.1086 35.0558 32.7585 34.3924 32.6729 33.6716C31.9376 35.1422 30.7876 36.2294 29.2416 36.2294C26.5017 36.2294 24.9745 33.0872 24.9745 30.0581C24.9745 27.0291 26.5016 23.9246 29.3736 23.9246C30.0626 23.937 30.7338 24.1458 31.3082 24.5266C31.8827 24.9073 32.3365 25.4441 32.6163 26.0738V24.509C32.6166 24.4775 32.6272 24.4469 32.6465 24.4219C32.6658 24.397 32.6927 24.379 32.7232 24.3708H37.072C37.0964 24.3784 37.1179 24.3934 37.1336 24.4136C37.1494 24.4338 37.1585 24.4583 37.1599 24.4839C37.1599 24.4839 37.0091 29.6434 37.0091 31.2019C37.0091 34.7965 38.4859 34.0299 38.266 34.6394M32.742 30.0518C32.742 28.3551 32.1764 26.9725 31.1144 26.9725C30.0523 26.9725 29.4804 28.3551 29.4804 30.0518C29.4804 31.7486 30.046 33.0998 31.1144 33.0998C32.1827 33.0998 32.742 31.7486 32.742 30.0518Z" fill="#EF413A"/>
<path d="M51.0987 35.0102C50.325 35.7892 49.2804 36.2395 48.1827 36.2671C44.4624 36.2671 43.834 32.2199 43.7837 30.7683C43.7837 30.454 43.8717 30.2718 44.0225 30.2718C46.8756 30.2718 46.4608 26.9222 44.984 26.9222C43.6769 26.9222 43.2872 28.2797 43.2432 29.3229V35.6072C43.2452 35.6366 43.2378 35.6659 43.2219 35.6908C43.2061 35.7157 43.1827 35.7348 43.1552 35.7455H38.9824C38.958 35.7378 38.9365 35.7229 38.9207 35.7027C38.905 35.6825 38.8958 35.6579 38.8944 35.6324C38.8944 35.6324 38.8316 22.0141 38.8316 19.5695C38.8316 19.5462 38.8409 19.5238 38.8574 19.5073C38.8739 19.4908 38.8963 19.4815 38.9196 19.4815H43.1804C43.1804 19.4815 43.2684 19.4815 43.2684 19.5695V26.2121C43.6083 25.5236 44.1311 24.942 44.7796 24.5308C45.428 24.1195 46.177 23.8946 46.9447 23.8806C50.6399 23.8806 51.4003 29.6245 47.4223 30.2844V30.3284C48.1295 32.0343 49.425 33.4301 51.0736 34.2624C51.4192 34.4446 51.4632 34.5577 51.0736 35.0102" fill="#EF413A"/>
<path d="M13.6501 0.0565643V2.14297H14.4985V0.0565643H14.9322V2.14297H15.7805V0.0565643H16.2205V2.51375H13.2165V0.0565643H13.6501Z" fill="#454545"/>
<path d="M21.1474 0.0565643V1.11234H21.2542L22.1655 0.0565643H22.7059L21.6439 1.15633C22.0398 1.19403 22.2723 1.45798 22.4608 1.8916C22.5348 2.10668 22.623 2.31662 22.7248 2.52004H22.2597C22.1741 2.36028 22.1006 2.19432 22.0398 2.02357C21.9904 1.85068 21.8841 1.69952 21.7381 1.59459C21.5921 1.48965 21.415 1.43709 21.2354 1.44541H21.1474V2.51375H20.7075V0.0565643H21.1474Z" fill="#454545"/>
<path d="M29.0908 1.25688C29.105 1.42352 29.0839 1.59128 29.029 1.74927C28.9742 1.90726 28.8868 2.05197 28.7724 2.17402C28.6581 2.29606 28.5194 2.39273 28.3653 2.45775C28.2112 2.52277 28.0452 2.55469 27.878 2.55146C27.7167 2.55294 27.557 2.5207 27.409 2.45679C27.2609 2.39289 27.1279 2.29873 27.0184 2.18037C26.9089 2.06202 26.8254 1.92207 26.7732 1.76952C26.721 1.61698 26.7013 1.4552 26.7153 1.29458C26.7003 1.12826 26.7205 0.960639 26.7746 0.80265C26.8287 0.64466 26.9155 0.499858 27.0294 0.377693C27.1432 0.255529 27.2816 0.158748 27.4354 0.0936684C27.5892 0.0285886 27.755 -0.00332751 27.9219 3.19735e-06C28.084 -0.00335763 28.2449 0.0275648 28.3941 0.0907433C28.5434 0.153922 28.6776 0.24793 28.7879 0.366604C28.8983 0.485278 28.9823 0.625939 29.0345 0.779365C29.0867 0.932791 29.1059 1.09552 29.0908 1.25688ZM27.1615 1.25688C27.1615 1.79105 27.4695 2.19325 27.8968 2.19325C28.3241 2.19325 28.6384 1.79733 28.6384 1.25059C28.6384 0.835824 28.431 0.314222 27.9094 0.314222C27.3878 0.314222 27.1615 0.816971 27.1615 1.25688Z" fill="#454545"/>
<path d="M35.2432 0.0565643V2.51375H34.8096V0.402205H33.9738V1.03064C33.9738 1.70935 33.9047 2.16811 33.5904 2.3755C33.4529 2.48306 33.2808 2.53669 33.1066 2.52632L33.0626 2.18068C33.149 2.16655 33.2309 2.13209 33.3014 2.08013C33.5276 1.91045 33.5527 1.5711 33.5527 1.03064V0.0565643H35.2432Z" fill="#454545"/>
<path d="M41.0877 2.51375L41.05 2.20582C40.9629 2.32119 40.8497 2.41435 40.7198 2.47769C40.5898 2.54104 40.4467 2.57277 40.3021 2.57031C40.2064 2.57637 40.1104 2.5626 40.0202 2.52987C39.93 2.49714 39.8475 2.44615 39.7779 2.38008C39.7083 2.31402 39.6531 2.23431 39.6157 2.14593C39.5783 2.05756 39.5595 1.96242 39.5606 1.86646C39.5606 1.28201 40.0822 0.961512 41.0248 0.967796V0.892384C41.0348 0.816844 41.0275 0.740026 41.0034 0.667733C40.9794 0.595441 40.9392 0.529565 40.8859 0.475085C40.8326 0.420605 40.7677 0.378946 40.6959 0.353255C40.6242 0.327565 40.5476 0.318515 40.4718 0.32679C40.2495 0.327837 40.0318 0.390956 39.8434 0.509037L39.7303 0.213672C39.9702 0.0724581 40.2437 -0.00136263 40.5221 3.36004e-06C41.2637 3.36004e-06 41.4459 0.509037 41.4459 0.992933V1.88531C41.4405 2.09572 41.4553 2.30615 41.4899 2.51375H41.0877ZM41.0186 1.25688C40.541 1.25688 39.9879 1.33229 39.9879 1.80362C39.9833 1.86037 39.9909 1.91746 40.0104 1.97099C40.0298 2.02452 40.0605 2.07323 40.1005 2.1138C40.1405 2.15436 40.1887 2.18583 40.242 2.20604C40.2952 2.22626 40.3522 2.23476 40.409 2.23095C40.5367 2.22788 40.6605 2.18593 40.7638 2.1107C40.8671 2.03547 40.945 1.93054 40.9871 1.8099C40.9966 1.76219 40.9966 1.71307 40.9871 1.66536L41.0186 1.25688Z" fill="#454545"/>
<path d="M52.5441 2.51375H52.1042V1.46426H51.7774C51.6307 1.4582 51.4871 1.50756 51.3752 1.60252C51.212 1.80155 51.0979 2.03621 51.0421 2.28751C51.0137 2.35696 50.9801 2.42419 50.9416 2.48861H50.4702C50.5305 2.40227 50.5811 2.30953 50.6211 2.2121C50.6911 1.94097 50.8222 1.68946 51.0044 1.47683C51.0823 1.4065 51.1779 1.35871 51.2809 1.33857C51.1143 1.33857 50.9544 1.27236 50.8366 1.15451C50.7187 1.03665 50.6525 0.876809 50.6525 0.710137C50.65 0.604627 50.6762 0.500423 50.7282 0.408586C50.7802 0.316749 50.8561 0.240708 50.9479 0.188535C51.1987 0.0605856 51.477 -0.00413493 51.7585 3.59624e-06C52.0211 0.0015366 52.2834 0.0183232 52.5441 0.0502785V2.51375ZM52.1042 0.345644C51.9828 0.337609 51.8611 0.337609 51.7397 0.345644C51.438 0.345644 51.1113 0.433625 51.1113 0.766696C51.1113 1.09977 51.5009 1.18775 51.7397 1.18775H52.1168L52.1042 0.345644Z" fill="#454545"/>
<path d="M57.2322 1.07463H57.4459C57.8167 1.07463 58.0743 0.904951 58.0743 0.678714C58.0743 0.452476 57.8795 0.326789 57.603 0.326789C57.3946 0.330539 57.1909 0.389058 57.0123 0.496467L56.8992 0.226239C57.1431 0.0769968 57.4238 -0.00134292 57.7098 1.76519e-06C58.0806 1.76519e-06 58.5331 0.163395 58.5331 0.628439C58.5172 0.768604 58.4547 0.899364 58.3555 0.999676C58.2564 1.09999 58.1263 1.16402 57.9864 1.18146C58.153 1.18146 58.3129 1.24767 58.4307 1.36553C58.5486 1.48338 58.6148 1.64323 58.6148 1.8099C58.6148 2.33779 58.0806 2.5326 57.5653 2.5326C57.2894 2.533 57.0177 2.46613 56.7735 2.33779L56.8929 2.03614C57.0851 2.14379 57.301 2.20209 57.5213 2.20582C57.8921 2.20582 58.1497 2.02985 58.1497 1.78476C58.1497 1.53967 57.8104 1.36999 57.4459 1.36999H57.2197L57.2322 1.07463Z" fill="#454545"/>
<path d="M63.3972 0.0565643V0.886101C63.5289 0.87413 63.6614 0.87413 63.7931 0.886101C64.3147 0.886101 64.8426 1.09977 64.8426 1.69678C64.8475 1.80411 64.8274 1.91111 64.7837 2.00929C64.7401 2.10746 64.6742 2.19412 64.5912 2.26238C64.3029 2.45611 63.9568 2.54486 63.6109 2.51375C63.4009 2.51196 63.1911 2.49938 62.9824 2.47605V0.0565643H63.3972ZM63.3972 2.18068C63.4997 2.18813 63.6026 2.18813 63.7051 2.18068C64.0382 2.18068 64.409 2.04242 64.409 1.66536C64.409 1.2883 64.057 1.15004 63.724 1.15004C63.6152 1.14258 63.506 1.14258 63.3972 1.15004V2.18068ZM65.5904 0.0565643V2.51375H65.1505V0.0565643H65.5904Z" fill="#454545"/>
<path d="M70.5236 0.0565643V1.11234H70.6305L71.5417 0.0565643H72.0822L71.0201 1.15633C71.4097 1.19403 71.6485 1.45798 71.8371 1.8916C71.9111 2.10668 71.9993 2.31662 72.101 2.52004H71.636C71.5479 2.36062 71.4723 2.19464 71.4097 2.02357C71.3624 1.84949 71.2566 1.697 71.1102 1.59171C70.9637 1.48643 70.7854 1.43477 70.6053 1.44541H70.5236V2.51375H70.0837V0.0565643H70.5236Z" fill="#454545"/>
<path d="M78.4671 1.25687C78.4812 1.42352 78.4602 1.59127 78.4053 1.74927C78.3505 1.90726 78.263 2.05196 78.1487 2.17401C78.0344 2.29606 77.8956 2.39272 77.7416 2.45774C77.5875 2.52276 77.4214 2.55469 77.2542 2.55145C77.0925 2.55383 76.932 2.52223 76.7833 2.45872C76.6345 2.39521 76.5007 2.30118 76.3905 2.18272C76.2804 2.06427 76.1963 1.92402 76.1437 1.77103C76.0911 1.61804 76.0713 1.45573 76.0853 1.29458C76.0703 1.12826 76.0905 0.960635 76.1446 0.802646C76.1987 0.644657 76.2855 0.499854 76.3994 0.37769C76.5132 0.255525 76.6516 0.158745 76.8054 0.0936649C76.9592 0.0285851 77.125 -0.00333095 77.2919 -2.34955e-07C77.4542 -0.00326418 77.6154 0.0276699 77.7649 0.0907898C77.9144 0.15391 78.049 0.247801 78.1598 0.366357C78.2707 0.484912 78.3553 0.625476 78.4083 0.778903C78.4612 0.932331 78.4813 1.09519 78.4671 1.25687ZM76.5378 1.25687C76.5378 1.79104 76.8395 2.19324 77.2731 2.19324C77.7067 2.19324 78.0146 1.79733 78.0146 1.25059C78.0146 0.835821 77.8073 0.314218 77.2857 0.314218C76.7641 0.314218 76.5378 0.816968 76.5378 1.25687Z" fill="#454545"/>
<path d="M82.7845 0.0879816C83.0403 0.0492665 83.2987 0.0303572 83.5574 0.0314223C83.9659 0.0314223 84.6384 0.0942659 84.6384 0.659859C84.6319 0.796476 84.5772 0.926376 84.484 1.02648C84.3908 1.12658 84.2651 1.1904 84.1293 1.2066C84.4875 1.25687 84.7577 1.45797 84.7577 1.83504C84.7577 2.46347 83.9533 2.55774 83.5009 2.55774C83.2306 2.55774 82.9478 2.55774 82.8159 2.55774L82.7845 0.0879816ZM83.1992 2.19324C83.3184 2.20304 83.4382 2.20304 83.5574 2.19324C83.8528 2.19324 84.299 2.11783 84.299 1.76591C84.299 1.41398 83.9471 1.33857 83.526 1.33857H83.1992V2.19324ZM83.1992 1.07463H83.5323C83.8591 1.07463 84.1607 0.980362 84.1607 0.691281C84.1607 0.4022 83.9533 0.339356 83.5323 0.339356C83.4172 0.33184 83.3017 0.33184 83.1867 0.339356L83.1992 1.07463Z" fill="#454545"/>
<path d="M71.0139 25.8665L62.9824 38.7243C62.9643 38.7614 62.9433 38.7972 62.9196 38.8311C62.7088 39.107 62.4027 39.2944 62.0611 39.3567C61.7195 39.4189 61.367 39.3516 61.0724 39.1678C60.7778 38.9839 60.5624 38.6969 60.4682 38.3627C60.374 38.0285 60.4078 37.6712 60.563 37.3606C60.5847 37.3246 60.6099 37.2909 60.6384 37.26L60.0853 36.9144L60.0099 37.0149C59.7851 37.4703 59.7375 37.9929 59.8762 38.4814C60.0149 38.9699 60.3301 39.3895 60.7606 39.6587C61.1911 39.928 61.7063 40.0278 62.2063 39.9387C62.7062 39.8497 63.1553 39.5781 63.4663 39.1767C63.4687 39.1538 63.4687 39.1306 63.4663 39.1076L71.5166 26.2121L72.409 24.597L72.1325 24.4211L71.0139 25.8665Z" fill="#374D94"/>
<path d="M59.2558 27.8146C59.6828 27.6166 60.1568 27.5424 60.6239 27.6006C61.0909 27.6587 61.5323 27.8468 61.8977 28.1435C62.2631 28.4401 62.5379 28.8334 62.6908 29.2786C62.8437 29.7237 62.8685 30.2029 62.7625 30.6614C63.169 30.334 63.6673 30.1413 64.1884 30.1099C64.7094 30.0786 65.2272 30.2102 65.6701 30.4866C66.1129 30.7629 66.4587 31.1702 66.6595 31.652C66.8603 32.1338 66.9062 32.6661 66.7908 33.1752C67.1968 32.8428 67.6967 32.6458 68.2204 32.6119C68.7441 32.5779 69.2652 32.7087 69.7108 32.9859C70.1564 33.2631 70.5041 33.6728 70.705 34.1575C70.906 34.6423 70.9503 35.1778 70.8316 35.6889C71.2048 35.3879 71.6564 35.1999 72.133 35.1471C72.6096 35.0943 73.0913 35.179 73.5214 35.391C73.9515 35.6031 74.3119 35.9337 74.5602 36.3439C74.8085 36.7542 74.9343 37.2268 74.9227 37.7062C75.7894 35.6562 75.8997 33.365 75.2338 31.2413C74.568 29.1175 73.1693 27.2994 71.2874 26.1112C69.4054 24.923 67.1625 24.442 64.9588 24.754C62.7551 25.066 60.734 26.1507 59.2558 27.8146Z" fill="#374D94"/>
</g>
<defs>
<clipPath id="clip0_2001_227">
<rect width="87.027" height="40" fill="white"/>
</clipPath>
</defs>
</svg>
