<svg width="60" height="60" viewBox="0 0 60 60" fill="none" xmlns="http://www.w3.org/2000/svg">
<circle cx="30" cy="30" r="30" fill="#EF413A"/>
<g clip-path="url(#clip0_123_683)">
<path d="M19.6569 29H40.6569C40.7895 29 40.9167 28.9473 41.0104 28.8536C41.1042 28.7598 41.1569 28.6326 41.1569 28.5V25C41.157 24.8686 41.1312 24.7385 41.081 24.6172C41.0308 24.4958 40.9572 24.3854 40.8644 24.2925L33.8644 17.2925C33.7714 17.1997 33.6611 17.1261 33.5397 17.0759C33.4183 17.0257 33.2882 16.9999 33.1569 17H21.1569C20.6264 17 20.1177 17.2107 19.7427 17.5858C19.3676 17.9609 19.1569 18.4696 19.1569 19V28.5C19.1569 28.6326 19.2095 28.7598 19.3033 28.8536C19.3971 28.9473 19.5243 29 19.6569 29ZM33.1569 19.5L38.6569 25H33.1569V19.5ZM42.1569 33.0662C42.1345 33.3233 42.0158 33.5624 41.8245 33.7355C41.6333 33.9087 41.3836 34.0032 41.1256 34H38.1569V36H40.1231C40.3812 35.9965 40.631 36.0909 40.8223 36.2641C41.0136 36.4374 41.1323 36.6766 41.1544 36.9338C41.1635 37.0705 41.1443 37.2077 41.0981 37.3368C41.052 37.4659 40.9797 37.5841 40.886 37.6841C40.7922 37.7841 40.6789 37.8637 40.553 37.9181C40.4271 37.9724 40.2915 38.0003 40.1544 38H38.1569V39.9662C38.1603 40.2243 38.066 40.4741 37.8927 40.6655C37.7195 40.8568 37.4803 40.9754 37.2231 40.9975C37.0863 41.0066 36.9491 40.9874 36.8201 40.9413C36.691 40.8951 36.5728 40.8229 36.4728 40.7291C36.3728 40.6353 36.2931 40.522 36.2388 40.3961C36.1845 40.2703 36.1566 40.1346 36.1569 39.9975V33C36.1569 32.7348 36.2622 32.4804 36.4498 32.2929C36.6373 32.1054 36.8917 32 37.1569 32H41.1569C41.294 31.9997 41.4296 32.0276 41.5555 32.0819C41.6814 32.1363 41.7947 32.2159 41.8885 32.3159C41.9822 32.4159 42.0545 32.5341 42.1006 32.6632C42.1468 32.7923 42.166 32.9295 42.1569 33.0662ZM22.1569 32H20.1569C19.8917 32 19.6373 32.1054 19.4498 32.2929C19.2622 32.4804 19.1569 32.7348 19.1569 33V39.9662C19.1528 40.2247 19.2468 40.4752 19.4201 40.667C19.5934 40.8589 19.833 40.9779 20.0906 41C20.2274 41.0091 20.3646 40.9899 20.4937 40.9438C20.6228 40.8976 20.741 40.8254 20.841 40.7316C20.9409 40.6378 21.0206 40.5245 21.0749 40.3986C21.1293 40.2728 21.1572 40.1371 21.1569 40V39H22.0819C23.9869 39 25.5994 37.51 25.6556 35.6063C25.6698 35.1379 25.5899 34.6714 25.4204 34.2345C25.251 33.7976 24.9956 33.3992 24.6693 33.0629C24.343 32.7265 23.9524 32.4591 23.5209 32.2766C23.0893 32.094 22.6255 32 22.1569 32ZM22.1131 37H21.1569V34H22.1569C22.3667 33.999 22.5743 34.0421 22.7665 34.1263C22.9586 34.2106 23.1309 34.3343 23.2723 34.4893C23.4136 34.6443 23.5209 34.8273 23.5872 35.0264C23.6534 35.2254 23.6772 35.4362 23.6569 35.645C23.6132 36.022 23.4311 36.3694 23.1459 36.6197C22.8607 36.8701 22.4926 37.0056 22.1131 37ZM30.1569 32H28.1569C27.8917 32 27.6373 32.1054 27.4498 32.2929C27.2622 32.4804 27.1569 32.7348 27.1569 33V40C27.1569 40.2652 27.2622 40.5196 27.4498 40.7071C27.6373 40.8946 27.8917 41 28.1569 41H30.0719C32.5294 41 34.5981 39.065 34.6556 36.6087C34.6701 36.0088 34.5645 35.412 34.3449 34.8535C34.1253 34.2951 33.7963 33.7861 33.3771 33.3567C32.9579 32.9272 32.4571 32.586 31.9041 32.353C31.351 32.12 30.757 32 30.1569 32ZM30.0956 39H29.1569V34H30.1569C30.4934 33.9998 30.8266 34.0675 31.1363 34.1991C31.4461 34.3307 31.7261 34.5235 31.9596 34.7659C32.193 35.0084 32.3751 35.2954 32.4949 35.61C32.6147 35.9245 32.6698 36.2599 32.6569 36.5963C32.6044 37.9487 31.4494 39 30.0956 39Z" fill="white"/>
</g>
<defs>
<clipPath id="clip0_123_683">
<rect width="32" height="32" fill="white" transform="translate(14.157 14)"/>
</clipPath>
</defs>
</svg>
