<svg width="60" height="60" viewBox="0 0 60 60" fill="none" xmlns="http://www.w3.org/2000/svg">
<circle cx="30" cy="30" r="30" fill="white"/>
<path d="M42.985 35.885C42.7621 37.5788 41.9303 39.1335 40.6449 40.2588C39.3595 41.3841 37.7084 42.0031 36 42C26.075 42 18 33.925 18 24C17.9969 22.2916 18.6159 20.6405 19.7412 19.3551C20.8665 18.0697 22.4212 17.2379 24.115 17.015C24.5433 16.9627 24.9771 17.0503 25.3515 17.2648C25.7259 17.4793 26.0209 17.8091 26.1925 18.205L28.8325 24.0987V24.1137C28.9639 24.4168 29.0181 24.7477 28.9904 25.0768C28.9627 25.406 28.8539 25.7231 28.6738 26C28.6513 26.0337 28.6275 26.065 28.6025 26.0962L26 29.1812C26.9363 31.0837 28.9263 33.0562 30.8538 33.995L33.8963 31.4062C33.9261 31.3811 33.9574 31.3578 33.99 31.3362C34.2666 31.1517 34.5849 31.0391 34.916 31.0086C35.2471 30.978 35.5805 31.0305 35.8863 31.1612L35.9025 31.1687L41.7913 33.8075C42.1879 33.9785 42.5185 34.2732 42.7337 34.6477C42.9489 35.0222 43.037 35.4562 42.985 35.885Z" fill="#374D94"/>
</svg>
