<svg width="60" height="60" viewBox="0 0 60 60" fill="none" xmlns="http://www.w3.org/2000/svg">
<circle cx="30" cy="30" r="30" fill="white"/>
<g clip-path="url(#clip0_112_568)">
<path d="M29.5 35.875C29.6511 35.9614 29.8222 36.0068 29.9963 36.0068C30.1703 36.0068 30.3414 35.9614 30.4925 35.875C30.7987 35.6988 37.9925 31.5 37.9925 24.0063C37.9297 21.9279 37.0601 19.9556 35.568 18.5074C34.0759 17.0592 32.0786 16.2489 29.9993 16.248C27.92 16.2472 25.922 17.056 24.4288 18.5031C22.9356 19.9501 22.0645 21.9217 22 24C22 31.5 29.1975 35.6925 29.5 35.875ZM30 21C30.5933 21 31.1734 21.176 31.6667 21.5056C32.1601 21.8353 32.5446 22.3038 32.7716 22.852C32.9987 23.4001 33.0581 24.0033 32.9424 24.5853C32.8266 25.1672 32.5409 25.7018 32.1213 26.1213C31.7018 26.5409 31.1672 26.8266 30.5853 26.9424C30.0033 27.0581 29.4001 26.9987 28.8519 26.7717C28.3038 26.5446 27.8352 26.1601 27.5056 25.6667C27.1759 25.1734 27 24.5934 27 24C27 23.2044 27.3161 22.4413 27.8787 21.8787C28.4413 21.3161 29.2044 21 30 21ZM44 37C44 40.8975 36.7863 43 30 43C23.2137 43 16 40.8975 16 37C16 35.1763 17.6525 33.5613 20.6537 32.4538C20.8999 32.3725 21.168 32.3899 21.4015 32.5024C21.635 32.6149 21.8157 32.8137 21.9055 33.0568C21.9953 33.3 21.9872 33.5685 21.8829 33.8058C21.7785 34.0431 21.5861 34.2306 21.3463 34.3288C19.2825 35.0925 18 36.115 18 37C18 38.67 22.565 41 30 41C37.435 41 42 38.67 42 37C42 36.115 40.7175 35.0925 38.6537 34.33C38.4139 34.2318 38.2215 34.0443 38.1171 33.807C38.0128 33.5698 38.0047 33.3012 38.0945 33.0581C38.1843 32.8149 38.365 32.6162 38.5985 32.5036C38.832 32.3911 39.1001 32.3737 39.3463 32.455C42.3475 33.5613 44 35.1763 44 37Z" fill="#374D94"/>
</g>
<defs>
<clipPath id="clip0_112_568">
<rect width="32" height="32" fill="white" transform="translate(14 14)"/>
</clipPath>
</defs>
</svg>
